<svg width="28" height="28" viewBox="0 0 28 28" fill="none" xmlns="http://www.w3.org/2000/svg">
<g clip-path="url(#clip0_2_356)" filter="url(#filter0_d_2_356)">
<path d="M22.3333 14.0999V16.5999C22.3343 16.832 22.2867 17.0617 22.1937 17.2744C22.1008 17.487 21.9644 17.6779 21.7934 17.8348C21.6224 17.9917 21.4205 18.1112 21.2006 18.1855C20.9808 18.2599 20.7478 18.2875 20.5167 18.2666C17.9523 17.988 15.4892 17.1117 13.325 15.7083C11.3115 14.4288 9.60443 12.7217 8.32499 10.7083C6.91663 8.53426 6.04019 6.05908 5.76665 3.48325C5.74583 3.25281 5.77321 3.02055 5.84707 2.80127C5.92092 2.58199 6.03963 2.38049 6.19562 2.2096C6.35162 2.03871 6.54149 1.90218 6.75314 1.80869C6.9648 1.7152 7.1936 1.6668 7.42499 1.66658H9.92499C10.3294 1.6626 10.7215 1.80582 11.0281 2.06953C11.3348 2.33324 11.535 2.69946 11.5917 3.09992C11.6972 3.89997 11.8929 4.68552 12.175 5.44158C12.2871 5.73985 12.3114 6.06401 12.2449 6.37565C12.1784 6.68729 12.024 6.97334 11.8 7.19992L10.7417 8.25825C11.9279 10.3445 13.6554 12.072 15.7417 13.2583L16.8 12.1999C17.0266 11.9759 17.3126 11.8215 17.6243 11.755C17.9359 11.6885 18.26 11.7128 18.5583 11.8249C19.3144 12.107 20.0999 12.3027 20.9 12.4083C21.3048 12.4654 21.6745 12.6693 21.9388 12.9812C22.203 13.2931 22.3435 13.6912 22.3333 14.0999Z" stroke="#B00000" stroke-width="2" stroke-linecap="round" stroke-linejoin="round"/>
</g>
<defs>
<filter id="filter0_d_2_356" x="0" y="0" width="28" height="28" filterUnits="userSpaceOnUse" color-interpolation-filters="sRGB">
<feFlood flood-opacity="0" result="BackgroundImageFix"/>
<feColorMatrix in="SourceAlpha" type="matrix" values="0 0 0 0 0 0 0 0 0 0 0 0 0 0 0 0 0 0 127 0" result="hardAlpha"/>
<feOffset dy="4"/>
<feGaussianBlur stdDeviation="2"/>
<feComposite in2="hardAlpha" operator="out"/>
<feColorMatrix type="matrix" values="0 0 0 0 0 0 0 0 0 0 0 0 0 0 0 0 0 0 0.25 0"/>
<feBlend mode="normal" in2="BackgroundImageFix" result="effect1_dropShadow_2_356"/>
<feBlend mode="normal" in="SourceGraphic" in2="effect1_dropShadow_2_356" result="shape"/>
</filter>
<clipPath id="clip0_2_356">
<rect width="20" height="20" fill="white" transform="translate(4)"/>
</clipPath>
</defs>
</svg>
